<svg xmlns="http://www.w3.org/2000/svg" viewBox="0 0 256 256" width="256" height="256">
  <!-- Document shape with folded corner -->
  <path d="M48 16 h112 l48 48 v176 a8 8 0 0 1 -8 8 H56 a8 8 0 0 1 -8 -8 V24 a8 8 0 0 1 8 -8 z"
        fill="#1E90FF" rx="8"/>
  <!-- Folded corner -->
  <path d="M160 16 v40 a8 8 0 0 0 8 8 h40"
        fill="none" stroke="#1565C0" stroke-width="2"/>
  <path d="M160 16 l48 48 h-40 a8 8 0 0 1 -8 -8 z"
        fill="#1565C0" opacity="0.4"/>

  <!-- Vertical OCR letters -->
  <text x="128" y="110" text-anchor="middle"
        font-family="Arial, Helvetica, sans-serif" font-weight="700"
        font-size="52" fill="#FFFFFF" letter-spacing="2">O</text>
  <text x="128" y="162" text-anchor="middle"
        font-family="Arial, Helvetica, sans-serif" font-weight="700"
        font-size="52" fill="#FFFFFF" letter-spacing="2">C</text>
  <text x="128" y="214" text-anchor="middle"
        font-family="Arial, Helvetica, sans-serif" font-weight="700"
        font-size="52" fill="#FFFFFF" letter-spacing="2">R</text>
</svg>
